<svg width="20" height="20" viewBox="0 0 20 20" fill="none" xmlns="http://www.w3.org/2000/svg">
<path fill-rule="evenodd" clip-rule="evenodd" d="M5.38462 0C5.80945 0 6.15385 0.3444 6.15385 0.769231V1.53846H13.8462V0.769231C13.8462 0.3444 14.1906 0 14.6154 0C15.0402 0 15.3846 0.3444 15.3846 0.769231V1.53846H17.6923C18.9668 1.53846 20 2.57165 20 3.84615V17.6923C20 18.9668 18.9668 20 17.6923 20H2.30769C1.03318 20 0 18.9668 0 17.6923V3.84615C0 2.57165 1.03318 1.53846 2.30769 1.53846H4.61538V0.769231C4.61538 0.3444 4.95978 0 5.38462 0ZM13.8462 3.07692V3.84615C13.8462 4.27098 14.1906 4.61538 14.6154 4.61538C15.0402 4.61538 15.3846 4.27098 15.3846 3.84615V3.07692H17.6923C18.1171 3.07692 18.4615 3.42132 18.4615 3.84615V6.15385H1.53846V3.84615C1.53846 3.42132 1.88286 3.07692 2.30769 3.07692H4.61538V3.84615C4.61538 4.27098 4.95978 4.61538 5.38462 4.61538C5.80945 4.61538 6.15385 4.27098 6.15385 3.84615V3.07692H13.8462ZM1.53846 7.69231V17.6923C1.53846 18.1171 1.88286 18.4615 2.30769 18.4615H17.6923C18.1171 18.4615 18.4615 18.1171 18.4615 17.6923V7.69231H1.53846ZM9.23077 10C9.23077 9.57517 9.57517 9.23077 10 9.23077C10.4248 9.23077 10.7692 9.57517 10.7692 10C10.7692 10.4248 10.4248 10.7692 10 10.7692C9.57517 10.7692 9.23077 10.4248 9.23077 10ZM13.0769 9.23077C12.6521 9.23077 12.3077 9.57517 12.3077 10C12.3077 10.4248 12.6521 10.7692 13.0769 10.7692C13.5018 10.7692 13.8462 10.4248 13.8462 10C13.8462 9.57517 13.5018 9.23077 13.0769 9.23077ZM15.3846 10C15.3846 9.57517 15.7291 9.23077 16.1538 9.23077C16.5786 9.23077 16.9231 9.57517 16.9231 10C16.9231 10.4248 16.5786 10.7692 16.1538 10.7692C15.7291 10.7692 15.3846 10.4248 15.3846 10ZM16.1538 12.3077C15.7291 12.3077 15.3846 12.6521 15.3846 13.0769C15.3846 13.5018 15.7291 13.8462 16.1538 13.8462C16.5786 13.8462 16.9231 13.5018 16.9231 13.0769C16.9231 12.6521 16.5786 12.3077 16.1538 12.3077ZM12.3077 13.0769C12.3077 12.6521 12.6521 12.3077 13.0769 12.3077C13.5018 12.3077 13.8462 12.6521 13.8462 13.0769C13.8462 13.5018 13.5018 13.8462 13.0769 13.8462C12.6521 13.8462 12.3077 13.5018 12.3077 13.0769ZM10 12.3077C9.57517 12.3077 9.23077 12.6521 9.23077 13.0769C9.23077 13.5018 9.57517 13.8462 10 13.8462C10.4248 13.8462 10.7692 13.5018 10.7692 13.0769C10.7692 12.6521 10.4248 12.3077 10 12.3077ZM6.15385 13.0769C6.15385 12.6521 6.49825 12.3077 6.92308 12.3077C7.34791 12.3077 7.69231 12.6521 7.69231 13.0769C7.69231 13.5018 7.34791 13.8462 6.92308 13.8462C6.49825 13.8462 6.15385 13.5018 6.15385 13.0769ZM3.84615 12.3077C3.42132 12.3077 3.07692 12.6521 3.07692 13.0769C3.07692 13.5018 3.42132 13.8462 3.84615 13.8462C4.27098 13.8462 4.61538 13.5018 4.61538 13.0769C4.61538 12.6521 4.27098 12.3077 3.84615 12.3077ZM3.07692 16.1538C3.07692 15.7291 3.42132 15.3846 3.84615 15.3846C4.27098 15.3846 4.61538 15.7291 4.61538 16.1538C4.61538 16.5786 4.27098 16.9231 3.84615 16.9231C3.42132 16.9231 3.07692 16.5786 3.07692 16.1538ZM6.92308 15.3846C6.49825 15.3846 6.15385 15.7291 6.15385 16.1538C6.15385 16.5786 6.49825 16.9231 6.92308 16.9231C7.34791 16.9231 7.69231 16.5786 7.69231 16.1538C7.69231 15.7291 7.34791 15.3846 6.92308 15.3846ZM9.23077 16.1538C9.23077 15.7291 9.57517 15.3846 10 15.3846C10.4248 15.3846 10.7692 15.7291 10.7692 16.1538C10.7692 16.5786 10.4248 16.9231 10 16.9231C9.57517 16.9231 9.23077 16.5786 9.23077 16.1538ZM13.0769 15.3846C12.6521 15.3846 12.3077 15.7291 12.3077 16.1538C12.3077 16.5786 12.6521 16.9231 13.0769 16.9231C13.5018 16.9231 13.8462 16.5786 13.8462 16.1538C13.8462 15.7291 13.5018 15.3846 13.0769 15.3846Z" fill="black"/>
</svg>
