<svg width="14" height="14" viewBox="0 0 14 14" fill="none" xmlns="http://www.w3.org/2000/svg">
<g clip-path="url(#clip0_213_490)">
<path fill-rule="evenodd" clip-rule="evenodd" d="M7 0.0505371C6.80108 0.0505371 6.61031 0.12956 6.46966 0.27022C6.329 0.41088 6.24999 0.601655 6.25 0.800574L6.25011 3.1054L2.96341 5.26984C2.77895 5.39131 2.69605 5.61941 2.75945 5.83097L2.76008 5.83304H11.4041L11.4047 5.83097C11.4681 5.61941 11.3852 5.39131 11.2008 5.26984L7.75011 2.99743L7.75004 1.55054H8.37118C8.78539 1.55054 9.12118 1.21475 9.12118 0.800537C9.12118 0.386324 8.78539 0.0505371 8.37118 0.0505371H7ZM13.242 8.55914H13.0463V12.4936H13.242C13.6562 12.4936 13.992 12.8294 13.992 13.2436C13.992 13.6578 13.6562 13.9936 13.242 13.9936H0.922119C0.507906 13.9936 0.172119 13.6578 0.172119 13.2436C0.172119 12.8294 0.507906 12.4936 0.922119 12.4936H1.11798V8.55914H0.922119C0.507906 8.55914 0.172119 8.22336 0.172119 7.80914C0.172119 7.39493 0.507906 7.05914 0.922119 7.05914H13.242C13.6562 7.05914 13.992 7.39493 13.992 7.80914C13.992 8.22336 13.6562 8.55914 13.242 8.55914ZM11.1358 8.55914H9.8858V12.4936H11.1358V8.55914ZM4.1142 8.55914H2.8642V12.4936H4.1142V8.55914ZM7.95703 12.4936V10.3832C7.95703 9.86913 7.54029 9.45239 7.02621 9.45239C6.51214 9.45239 6.0954 9.86913 6.0954 10.3832V12.4936H7.95703Z" fill="black"/>
</g>
<defs>
<clipPath id="clip0_213_490">
<rect width="14" height="14" fill="white"/>
</clipPath>
</defs>
</svg>
