<svg width="28" height="28" viewBox="0 0 28 28" fill="none" xmlns="http://www.w3.org/2000/svg">
<path fill-rule="evenodd" clip-rule="evenodd" d="M20.5858 2.58578C21.3668 1.80474 22.6332 1.80474 23.4142 2.58578L27.4142 6.58578C28.1952 7.36684 28.1952 8.63316 27.4142 9.41422C26.6332 10.1953 25.3668 10.1953 24.5858 9.41422L22 6.82842L19.8284 9.00002L22.4142 11.5858C23.1952 12.3668 23.1952 13.6332 22.4142 14.4142C21.6332 15.1953 20.3668 15.1953 19.5858 14.4142L17 11.8284L14.8924 13.9361C15.5961 15.1271 16 16.5164 16 18C16 22.4182 12.4183 26 8 26C3.58172 26 0 22.4182 0 18C0 13.5817 3.58172 10 8 10C9.48362 10 10.8729 10.4039 12.064 11.1077L15.5786 7.59302L15.5858 7.58578L15.593 7.57858L20.5858 2.58578ZM4 18C4 15.7909 5.79086 14 8 14C10.2091 14 12 15.7909 12 18C12 20.2092 10.2091 22 8 22C5.79086 22 4 20.2092 4 18Z" fill="black"/>
</svg>
