<svg width="21" height="21" viewBox="0 0 21 21" fill="none" xmlns="http://www.w3.org/2000/svg">
<path fill-rule="evenodd" clip-rule="evenodd" d="M10.5 0C4.70103 0 0 4.70102 0 10.5C0 16.299 4.70102 21.0001 10.5 21.0001C16.2991 21.0001 21 16.299 21 10.5C21 4.70102 16.2989 0 10.5 0ZM1.50616 10.5C1.50616 5.53285 5.53286 1.50615 10.5 1.50615C15.4672 1.50615 19.4938 5.53285 19.4938 10.5C19.4938 15.4671 15.4672 19.4939 10.5 19.4939C5.53286 19.4939 1.50616 15.4671 1.50616 10.5ZM11.2926 5.744C11.2926 5.3062 10.9377 4.95128 10.4999 4.95128C10.0621 4.95128 9.70716 5.3062 9.70716 5.744V10.5003C9.70716 10.7105 9.79068 10.9122 9.93935 11.0608L13.1102 14.2317C13.4198 14.5412 13.9217 14.5412 14.2313 14.2317C14.5408 13.9221 14.5408 13.4202 14.2313 13.1106L11.2926 10.1719V5.744Z" fill="black"/>
</svg>
