<svg width="30" height="30" viewBox="0 0 30 30" fill="none" xmlns="http://www.w3.org/2000/svg">
<path d="M6.24979 13.75C6.24979 8.22715 10.7266 3.75 16.2489 3.75C21.7713 3.75 26.2481 8.22715 26.2481 13.75C26.2481 15.1875 25.9448 16.5542 25.3987 17.7895L26.25 23.7491L21.1432 22.4723C19.6965 23.2859 18.0269 23.75 16.2489 23.75M3.75118 20C3.75118 20.8985 3.94073 21.7526 4.28201 22.5247L3.75 26.2494L6.94144 25.4514C7.84554 25.9599 8.88893 26.25 10.0001 26.25C13.4512 26.25 16.2489 23.4518 16.2489 20C16.2489 16.5482 13.4512 13.75 10.0001 13.75C6.5489 13.75 3.75118 16.5482 3.75118 20Z" stroke="black" stroke-width="2" stroke-linecap="round" stroke-linejoin="round"/>
</svg>
